<?xml version="1.0" standalone="no"?>
<!DOCTYPE svg PUBLIC "-//W3C//DTD SVG 20010904//EN"
 "http://www.w3.org/TR/2001/REC-SVG-20010904/DTD/svg10.dtd">
<svg version="1.0" xmlns="http://www.w3.org/2000/svg"
 width="150.000000pt" height="250.000000pt" viewBox="0 0 150.000000 250.000000"
 preserveAspectRatio="xMidYMid meet">

<g transform="translate(0.000000,250.000000) scale(0.100000,-0.100000)"
fill="#000000" stroke="none">
<path d="M510 2181 c0 -111 2 -131 15 -131 13 0 15 18 13 127 -2 90 -7 128
-15 131 -10 3 -13 -27 -13 -127z"/>
<path d="M580 2181 c0 -110 2 -131 15 -131 12 0 15 16 16 83 l1 82 25 -82 c21
-65 30 -83 45 -83 17 0 18 8 16 128 -3 105 -6 127 -18 127 -12 0 -16 -17 -18
-75 l-4 -75 -26 74 c-42 115 -52 106 -52 -48z"/>
<path d="M756 2288 c-22 -32 -22 -184 0 -216 22 -32 74 -27 91 8 16 32 16 168
0 200 -17 35 -69 40 -91 8z m74 -24 c13 -33 13 -135 0 -169 -15 -39 -51 -31
-63 15 -9 36 -5 150 7 169 13 21 46 12 56 -15z"/>
<path d="M900 2290 c0 -16 11 -67 45 -218 4 -15 12 -22 22 -20 13 2 24 33 44
123 15 70 23 124 18 130 -16 16 -26 -7 -45 -105 l-18 -95 -17 87 c-9 47 -19
93 -22 102 -9 22 -27 20 -27 -4z"/>
<path d="M1117 2300 c-11 -29 -77 -237 -77 -243 0 -4 36 -7 80 -7 57 0 80 4
80 13 -1 29 -78 251 -83 237z"/>
<path d="M412 2264 c-21 -14 -22 -22 -22 -132 0 -64 4 -122 8 -127 14 -21 72
-56 82 -50 6 3 10 49 10 104 0 75 -4 101 -15 111 -10 8 -15 30 -15 61 0 53
-10 60 -48 33z m58 -202 l0 -93 -29 17 c-36 21 -41 37 -41 137 l0 77 35 -22
35 -23 0 -93z"/>
<path d="M750 2030 c0 -5 25 -10 55 -10 30 0 55 5 55 10 0 6 -25 10 -55 10
-30 0 -55 -4 -55 -10z"/>
<path d="M640 1991 c0 -6 4 -13 10 -16 6 -3 7 1 4 9 -7 18 -14 21 -14 7z"/>
<path d="M511 1978 c-1 -10 6 -18 14 -18 8 0 15 8 15 18 0 13 -2 14 -9 3 -7
-11 -9 -11 -14 0 -4 10 -6 9 -6 -3z"/>
<path d="M610 1723 c-33 -12 -50 -37 -50 -73 0 -72 80 -101 127 -46 29 34 29
58 1 90 -25 26 -54 37 -78 29z"/>
<path d="M856 1143 c-6 -14 -5 -15 5 -6 7 7 10 15 7 18 -3 3 -9 -2 -12 -12z"/>
<path d="M673 558 c-55 -27 -70 -136 -24 -182 32 -32 96 -28 127 7 13 16 24
38 23 50 0 16 -3 13 -12 -13 -15 -44 -56 -66 -101 -53 -62 17 -77 113 -27 164
49 48 118 30 134 -36 4 -18 5 -17 6 3 2 52 -70 87 -126 60z"/>
<path d="M354 460 c0 -58 1 -81 3 -52 2 28 2 76 0 105 -2 28 -3 5 -3 -53z"/>
<path d="M422 458 l2 -103 3 94 4 93 65 -91 c36 -50 67 -91 69 -91 3 0 4 46 3
103 l-2 102 -3 -94 -4 -93 -65 91 c-36 50 -67 91 -69 91 -3 0 -4 -46 -3 -102z"/>
<path d="M831 555 c1 -19 18 -51 18 -35 0 8 -4 22 -9 30 -5 8 -9 11 -9 5z"/>
<path d="M951 504 c-12 -31 -20 -59 -18 -61 2 -2 14 22 26 53 12 31 20 59 18
61 -2 2 -14 -22 -26 -53z"/>
<path d="M1031 438 c-23 -57 -41 -106 -41 -110 0 -5 41 -8 91 -8 83 0 91 2 85
18 -36 95 -82 202 -87 202 -4 0 -25 -46 -48 -102z"/>
<path d="M861 464 c-2 -20 31 -104 40 -104 11 0 12 17 1 22 -5 2 -16 23 -25
48 -8 25 -16 40 -16 34z"/>
<path d="M916 415 c-9 -26 -7 -32 5 -12 6 10 9 21 6 23 -2 3 -7 -2 -11 -11z"/>
</g>
</svg>
